<svg width="69" height="69" viewBox="0 0 69 69" fill="none" xmlns="http://www.w3.org/2000/svg">
<g filter="url(#filter0_d_464_161)">
<rect x="2" y="2" width="65" height="65" rx="15" fill="#C2CDFF"/>
</g>
<path d="M54.3333 41.1333V46.0667C54.3312 48.0286 53.5535 49.9096 52.1709 51.2969C50.7883 52.6842 48.9137 53.4645 46.9583 53.4667H22.375C20.4197 53.4645 18.5451 52.6842 17.1624 51.2969C15.7798 49.9096 15.0021 48.0286 15 46.0667V41.1333C15 40.4791 15.259 39.8517 15.72 39.3891C16.1811 38.9265 16.8063 38.6667 17.4583 38.6667C18.1103 38.6667 18.7356 38.9265 19.1966 39.3891C19.6577 39.8517 19.9167 40.4791 19.9167 41.1333V46.0667C19.9173 46.7207 20.1765 47.3477 20.6374 47.8101C21.0983 48.2726 21.7232 48.5327 22.375 48.5333H46.9583C47.6101 48.5327 48.235 48.2726 48.6959 47.8101C49.1568 47.3477 49.416 46.7207 49.4167 46.0667V41.1333C49.4167 40.4791 49.6757 39.8517 50.1367 39.3891C50.5977 38.9265 51.223 38.6667 51.875 38.6667C52.527 38.6667 53.1523 38.9265 53.6133 39.3891C54.0743 39.8517 54.3333 40.4791 54.3333 41.1333ZM32.9278 42.8773L32.9814 42.928C33.0929 43.0141 33.212 43.0899 33.3371 43.1544C33.4637 43.2542 33.6 43.3408 33.7439 43.4131C34.036 43.5365 34.3497 43.6 34.6667 43.6001C34.9836 43.6001 35.2973 43.5366 35.5895 43.4132C35.7339 43.3407 35.8706 43.2537 35.9975 43.1535C36.1222 43.0892 36.2408 43.0137 36.352 42.928L36.4051 42.8779L43.727 35.9509C43.9628 35.729 44.1527 35.4627 44.2858 35.1671C44.4189 34.8715 44.4926 34.5525 44.5026 34.2283C44.5126 33.9041 44.4588 33.5811 44.3442 33.2778C44.2297 32.9745 44.0566 32.6969 43.8349 32.4608C43.6132 32.2247 43.3473 32.0349 43.0523 31.9021C42.7574 31.7693 42.4392 31.6962 42.1161 31.687C41.793 31.6778 41.4712 31.7327 41.1692 31.8484C40.8673 31.9642 40.591 32.1386 40.3563 32.3617L37.125 35.4177V16.4667C37.125 15.8125 36.866 15.1851 36.405 14.7225C35.9439 14.2599 35.3187 14 34.6667 14C34.0147 14 33.3894 14.2599 32.9284 14.7225C32.4673 15.1851 32.2083 15.8125 32.2083 16.4667V35.4177L28.977 32.3615C28.7423 32.1385 28.466 31.9641 28.1641 31.8483C27.8621 31.7325 27.5403 31.6777 27.2172 31.6869C26.8941 31.6961 26.5759 31.7692 26.281 31.902C25.9861 32.0347 25.7201 32.2246 25.4984 32.4607C25.2767 32.6967 25.1037 32.9744 24.9891 33.2777C24.8745 33.581 24.8207 33.904 24.8307 34.2282C24.8407 34.5524 24.9144 34.8714 25.0475 35.167C25.1806 35.4626 25.3705 35.7289 25.6064 35.9507L32.9278 42.8773Z" fill="#2140F0"/>
<defs>
<filter id="filter0_d_464_161" x="0" y="0" width="69" height="69" filterUnits="userSpaceOnUse" color-interpolation-filters="sRGB">
<feFlood flood-opacity="0" result="BackgroundImageFix"/>
<feColorMatrix in="SourceAlpha" type="matrix" values="0 0 0 0 0 0 0 0 0 0 0 0 0 0 0 0 0 0 127 0" result="hardAlpha"/>
<feOffset/>
<feGaussianBlur stdDeviation="1"/>
<feComposite in2="hardAlpha" operator="out"/>
<feColorMatrix type="matrix" values="0 0 0 0 0 0 0 0 0 0.0495355 0 0 0 0 0.330769 0 0 0 0.25 0"/>
<feBlend mode="normal" in2="BackgroundImageFix" result="effect1_dropShadow_464_161"/>
<feBlend mode="normal" in="SourceGraphic" in2="effect1_dropShadow_464_161" result="shape"/>
</filter>
</defs>
</svg>
