<svg width="213" height="60" viewBox="0 0 213 60" fill="none" xmlns="http://www.w3.org/2000/svg">
<path d="M2.52 48V15.6H9.68V28.72H14.72V15.6H21.88V48H14.72V33.84H9.68V48H2.52ZM33.2141 48.4C31.5341 48.4 30.0941 48.1067 28.8941 47.52C27.6941 46.9067 26.7741 46.0267 26.1341 44.88C25.4941 43.7067 25.1741 42.3067 25.1741 40.68V32.2C25.1741 30.5467 25.4941 29.1467 26.1341 28C26.7741 26.8533 27.6941 25.9867 28.8941 25.4C30.1207 24.7867 31.5607 24.48 33.2141 24.48C34.9207 24.48 36.3341 24.7733 37.4541 25.36C38.6007 25.9467 39.4541 26.8133 40.0141 27.96C40.6007 29.1067 40.8941 30.52 40.8941 32.2V36.84H31.6141V41.28C31.6141 41.8667 31.6807 42.3467 31.8141 42.72C31.9474 43.0933 32.1341 43.36 32.3741 43.52C32.6141 43.68 32.8941 43.76 33.2141 43.76C33.5341 43.76 33.8141 43.6933 34.0541 43.56C34.3207 43.4 34.5207 43.16 34.6541 42.84C34.8141 42.52 34.8941 42.08 34.8941 41.52V39.08H40.8941V41.32C40.8941 43.6667 40.2141 45.44 38.8541 46.64C37.4941 47.8133 35.6141 48.4 33.2141 48.4ZM31.6141 33.8H34.8941V31.48C34.8941 30.8667 34.8141 30.3867 34.6541 30.04C34.5207 29.6933 34.3207 29.4533 34.0541 29.32C33.8141 29.1867 33.5207 29.12 33.1741 29.12C32.8541 29.12 32.5741 29.2 32.3341 29.36C32.1207 29.52 31.9474 29.8 31.8141 30.2C31.6807 30.5733 31.6141 31.12 31.6141 31.84V33.8ZM44.1231 48V15.6H59.1631V20.92H51.2831V48H44.1231ZM71.0378 48.48C68.6111 48.48 66.6911 48.0533 65.2778 47.2C63.8645 46.3467 62.8511 45.12 62.2378 43.52C61.6245 41.92 61.3178 40.0133 61.3178 37.8V25.76C61.3178 23.52 61.6245 21.6133 62.2378 20.04C62.8511 18.4667 63.8645 17.2667 65.2778 16.44C66.6911 15.5867 68.6111 15.16 71.0378 15.16C73.4911 15.16 75.4245 15.5867 76.8378 16.44C78.2778 17.2667 79.3045 18.4667 79.9178 20.04C80.5311 21.6133 80.8378 23.52 80.8378 25.76V37.8C80.8378 40.0133 80.5311 41.92 79.9178 43.52C79.3045 45.12 78.2778 46.3467 76.8378 47.2C75.4245 48.0533 73.4911 48.48 71.0378 48.48ZM71.0378 43.4C71.7845 43.4 72.3311 43.2133 72.6778 42.84C73.0245 42.4667 73.2511 41.9867 73.3578 41.4C73.4645 40.8133 73.5178 40.2133 73.5178 39.6V24C73.5178 23.36 73.4645 22.76 73.3578 22.2C73.2511 21.6133 73.0245 21.1333 72.6778 20.76C72.3311 20.3867 71.7845 20.2 71.0378 20.2C70.3445 20.2 69.8245 20.3867 69.4778 20.76C69.1311 21.1333 68.9045 21.6133 68.7978 22.2C68.6911 22.76 68.6378 23.36 68.6378 24V39.6C68.6378 40.2133 68.6778 40.8133 68.7578 41.4C68.8645 41.9867 69.0778 42.4667 69.3978 42.84C69.7445 43.2133 70.2911 43.4 71.0378 43.4ZM93.6753 48.48C91.222 48.48 89.2753 48.04 87.8353 47.16C86.422 46.2533 85.422 45 84.8353 43.4C84.2486 41.7733 83.9553 39.8667 83.9553 37.68V26C83.9553 23.76 84.2486 21.84 84.8353 20.24C85.422 18.6133 86.422 17.36 87.8353 16.48C89.2753 15.6 91.222 15.16 93.6753 15.16C96.0753 15.16 97.942 15.56 99.2753 16.36C100.635 17.1333 101.595 18.2267 102.155 19.64C102.715 21.0533 102.995 22.68 102.995 24.52V27.32H95.9953V24.08C95.9953 23.44 95.9553 22.8267 95.8753 22.24C95.822 21.6533 95.6353 21.1733 95.3153 20.8C94.9953 20.4 94.4486 20.2 93.6753 20.2C92.9286 20.2 92.3686 20.4 91.9953 20.8C91.6486 21.2 91.422 21.7067 91.3153 22.32C91.2353 22.9067 91.1953 23.5333 91.1953 24.2V39.44C91.1953 40.16 91.2486 40.8267 91.3553 41.44C91.4886 42.0267 91.7286 42.5067 92.0753 42.88C92.4486 43.2267 92.982 43.4 93.6753 43.4C94.422 43.4 94.9553 43.2133 95.2753 42.84C95.5953 42.44 95.7953 41.9333 95.8753 41.32C95.9553 40.7067 95.9953 40.08 95.9953 39.44V36.04H102.995V38.84C102.995 40.68 102.715 42.3333 102.155 43.8C101.622 45.24 100.675 46.3867 99.3153 47.24C97.982 48.0667 96.102 48.48 93.6753 48.48ZM109.054 48V20.92H104.174V15.6H121.094V20.92H116.254V48H109.054ZM121.278 54.72V50.2C122.105 50.2 122.785 50.1467 123.318 50.04C123.878 49.9333 124.292 49.7333 124.558 49.44C124.852 49.1467 124.998 48.7467 124.998 48.24C124.998 47.7867 124.918 47.24 124.758 46.6C124.598 45.9333 124.398 45.1867 124.158 44.36L118.718 24.88H124.838L127.758 38.24L129.958 24.88H136.118L130.798 48.56C130.452 50.16 129.905 51.4 129.158 52.28C128.412 53.1867 127.492 53.8133 126.398 54.16C125.332 54.5333 124.118 54.72 122.758 54.72H121.278ZM137.768 48V24.88H142.928V37.24L148.968 24.88H154.048V48H148.768V35.76L142.888 48H137.768ZM145.968 22.28C144.075 22.28 142.555 21.7467 141.408 20.68C140.261 19.6133 139.688 18.0667 139.688 16.04H143.368C143.368 17.0267 143.555 17.76 143.928 18.24C144.328 18.72 145.008 18.96 145.968 18.96C146.901 18.96 147.568 18.72 147.968 18.24C148.368 17.7333 148.568 17 148.568 16.04H152.248C152.248 18.0667 151.675 19.6133 150.528 20.68C149.381 21.7467 147.861 22.28 145.968 22.28Z" fill="#F4F6FF"/>
<path d="M178 49.1069H198.902V45.3024H181.785V14.6949H204.457V35.2585H208.241V10.8906H178L178 49.1069Z" fill="#F4F6FF"/>
<path d="M184.349 18.4258H201.901V22.2303H184.349V18.4258Z" fill="#F4F6FF"/>
<path d="M184.349 28.0977H201.901V31.9022H184.349V28.0977Z" fill="#F4F6FF"/>
<path d="M184.349 37.7695H197.265V41.574H184.349V37.7695Z" fill="#F4F6FF"/>
<path d="M210.322 37.543L205.023 42.8598L202.374 40.1966L199.706 42.8883L202.346 45.5515L205.023 48.2431L213 40.225L210.322 37.543Z" fill="#F4F6FF"/>
</svg>
