<svg width="35" height="52" viewBox="0 0 35 52" fill="none" xmlns="http://www.w3.org/2000/svg">
<path d="M7.10415 51.8398V10.5598C6.63481 10.8158 6.10148 11.0718 5.50415 11.3278C4.90681 11.5838 4.26681 11.8612 3.58415 12.1598C2.94415 12.4158 2.30415 12.6718 1.66415 12.9278C1.06681 13.1838 0.512148 13.4398 0.000147939 13.6958V5.75984C0.469481 5.50384 1.13081 5.16251 1.98415 4.73584C2.83748 4.26651 3.75481 3.75451 4.73615 3.19984C5.71748 2.64517 6.63481 2.09051 7.48815 1.53584C8.34148 0.93851 8.98148 0.426509 9.40815 -0.000160217H17.7921V51.8398H7.10415ZM24.8811 51.8398V41.9838H34.7371V51.8398H24.8811Z" fill="#2140F0"/>
</svg>
