<svg width="42" height="53" viewBox="0 0 42 53" fill="none" xmlns="http://www.w3.org/2000/svg">
<path d="M0.127769 52.543V44.991L12.5438 25.919C13.4824 24.511 14.3571 23.1456 15.1678 21.823C16.0211 20.5003 16.7038 19.1563 17.2158 17.791C17.7704 16.4256 18.0478 14.9963 18.0478 13.503C18.0478 12.0096 17.7491 10.9003 17.1518 10.175C16.5544 9.44963 15.7438 9.08697 14.7198 9.08697C13.5678 9.08697 12.6718 9.40697 12.0318 10.047C11.3918 10.687 10.9438 11.5403 10.6878 12.607C10.4744 13.6736 10.3678 14.8683 10.3678 16.191V18.751H-0.000231028V15.999C-0.000231028 12.927 0.490436 10.1963 1.47177 7.80696C2.4531 5.37497 4.01044 3.4763 6.14377 2.11097C8.2771 0.702966 11.0718 -0.00103378 14.5278 -0.00103378C19.1784 -0.00103378 22.6771 1.21497 25.0238 3.64697C27.4131 6.0363 28.6078 9.38563 28.6078 13.695C28.6078 15.7856 28.2664 17.727 27.5838 19.519C26.9438 21.311 26.0691 23.0603 24.9598 24.767C23.8931 26.431 22.7411 28.1803 21.5038 30.015L12.0318 44.159H27.1998V52.543H0.127769ZM32.0428 52.543V42.687H41.8988V52.543H32.0428Z" fill="#2140F0"/>
</svg>
