<svg width="42" height="54" viewBox="0 0 42 54" fill="none" xmlns="http://www.w3.org/2000/svg">
<path d="M14.2722 53.5694C10.6456 53.5694 7.78689 52.8867 5.69622 51.5214C3.64822 50.156 2.17622 48.2574 1.28022 45.8254C0.426889 43.3507 0.000222206 40.5134 0.000222206 37.3134V35.4574H10.6882C10.6882 35.5 10.6882 35.7347 10.6882 36.1614C10.6882 36.588 10.6882 36.972 10.6882 37.3134C10.6882 39.02 10.7949 40.4067 11.0082 41.4734C11.2216 42.54 11.6056 43.3294 12.1602 43.8414C12.7149 44.3107 13.4829 44.5454 14.4642 44.5454C15.4456 44.5454 16.1709 44.2894 16.6402 43.7774C17.1522 43.2654 17.4936 42.4974 17.6642 41.4734C17.8349 40.4494 17.9202 39.1694 17.9202 37.6334C17.9202 35.0734 17.5576 33.132 16.8322 31.8094C16.1496 30.444 14.6989 29.74 12.4802 29.6974C12.4376 29.6974 12.2029 29.6974 11.7762 29.6974C11.3496 29.6974 10.9229 29.6974 10.4962 29.6974V22.3374C10.7949 22.3374 11.0936 22.3374 11.3922 22.3374C11.6909 22.3374 11.9682 22.3374 12.2242 22.3374C14.4856 22.3374 16.0002 21.7187 16.7682 20.4814C17.5362 19.244 17.9202 17.324 17.9202 14.7214C17.9202 12.716 17.6429 11.18 17.0882 10.1134C16.5762 9.04671 15.5949 8.51337 14.1442 8.51337C12.7362 8.51337 11.7976 9.11071 11.3282 10.3054C10.9016 11.5 10.6882 13.036 10.6882 14.9134C10.6882 15.34 10.6882 15.788 10.6882 16.2574C10.6882 16.684 10.6882 17.132 10.6882 17.6014H0.000222206V14.4654C0.000222206 11.3507 0.554889 8.72671 1.66422 6.59337C2.81622 4.41737 4.43756 2.77471 6.52822 1.66537C8.66156 0.556039 11.2002 0.00137329 14.1442 0.00137329C17.1309 0.00137329 19.6909 0.534706 21.8242 1.60137C23.9576 2.66804 25.6002 4.24671 26.7522 6.33737C27.9042 8.38537 28.4802 10.9454 28.4802 14.0174C28.4802 17.0467 27.8616 19.5854 26.6242 21.6334C25.3869 23.6814 23.8936 24.94 22.1442 25.4094C23.3389 25.836 24.4056 26.5187 25.3442 27.4574C26.3256 28.396 27.0936 29.676 27.6482 31.2974C28.2029 32.876 28.4802 34.9027 28.4802 37.3774C28.4802 40.5347 28.0109 43.3294 27.0722 45.7614C26.1762 48.1934 24.6829 50.1134 22.5922 51.5214C20.5016 52.8867 17.7282 53.5694 14.2722 53.5694ZM32.1072 52.6094V42.7534H41.9632V52.6094H32.1072Z" fill="#2140F0"/>
</svg>
