<svg width="189" height="54" viewBox="0 0 189 54" fill="none" xmlns="http://www.w3.org/2000/svg">
<path d="M15.5519 53.311C11.6693 53.311 8.59726 52.6283 6.33592 51.263C4.07459 49.8976 2.45326 47.935 1.47192 45.375C0.490589 42.815 -7.77245e-05 39.7643 -7.77245e-05 36.223V16.959C-7.77245e-05 13.375 0.490589 10.3243 1.47192 7.80696C2.45326 5.28963 4.07459 3.36963 6.33592 2.04697C8.59726 0.681633 11.6693 -0.00103378 15.5519 -0.00103378C19.4773 -0.00103378 22.5706 0.681633 24.8319 2.04697C27.1359 3.36963 28.7786 5.28963 29.7599 7.80696C30.7413 10.3243 31.2319 13.375 31.2319 16.959V36.223C31.2319 39.7643 30.7413 42.815 29.7599 45.375C28.7786 47.935 27.1359 49.8976 24.8319 51.263C22.5706 52.6283 19.4773 53.311 15.5519 53.311ZM15.5519 45.183C16.7466 45.183 17.6213 44.8843 18.1759 44.287C18.7306 43.6896 19.0933 42.9216 19.2639 41.983C19.4346 41.0443 19.5199 40.0843 19.5199 39.103V14.143C19.5199 13.119 19.4346 12.159 19.2639 11.263C19.0933 10.3243 18.7306 9.5563 18.1759 8.95897C17.6213 8.36163 16.7466 8.06297 15.5519 8.06297C14.4426 8.06297 13.6106 8.36163 13.0559 8.95897C12.5013 9.5563 12.1386 10.3243 11.9679 11.263C11.7973 12.159 11.7119 13.119 11.7119 14.143V39.103C11.7119 40.0843 11.7759 41.0443 11.9039 41.983C12.0746 42.9216 12.4159 43.6896 12.9279 44.287C13.4826 44.8843 14.3573 45.183 15.5519 45.183ZM63.4749 53.183C60.7869 53.183 58.4829 52.6923 56.5629 51.711C54.6856 50.7296 53.2349 49.3216 52.2109 47.487C51.1869 45.6523 50.6749 43.4336 50.6749 40.831V27.263C50.6749 24.6176 51.1869 22.3776 52.2109 20.543C53.2349 18.7083 54.6856 17.3216 56.5629 16.383C58.4829 15.4016 60.7869 14.911 63.4749 14.911C66.1203 14.911 68.3603 15.3163 70.1949 16.127C72.0723 16.9376 73.5016 18.175 74.4829 19.839C75.4643 21.4603 75.9549 23.5296 75.9549 26.047V29.951H65.9069V25.727C65.9069 24.7456 65.8003 23.999 65.5869 23.487C65.4163 22.9323 65.1389 22.5483 64.7549 22.335C64.4136 22.1216 63.9869 22.015 63.4749 22.015C62.9629 22.015 62.5363 22.1643 62.1949 22.463C61.8536 22.719 61.5976 23.167 61.4269 23.807C61.2563 24.4043 61.1709 25.2576 61.1709 26.367V41.727C61.1709 43.391 61.3629 44.5216 61.7469 45.119C62.1736 45.7163 62.7709 46.015 63.5389 46.015C64.0936 46.015 64.5416 45.9083 64.8829 45.695C65.2243 45.439 65.4803 45.055 65.6509 44.543C65.8216 43.9883 65.9069 43.263 65.9069 42.367V37.439H75.9549V41.919C75.9549 44.3936 75.4429 46.4843 74.4189 48.191C73.4376 49.855 72.0083 51.1136 70.1309 51.967C68.2963 52.7776 66.0776 53.183 63.4749 53.183ZM86.6924 53.183C84.8151 53.183 83.2364 52.735 81.9564 51.839C80.6764 50.943 79.7164 49.8123 79.0764 48.447C78.4364 47.039 78.1164 45.6096 78.1164 44.159C78.1164 41.855 78.5644 39.9136 79.4604 38.335C80.3991 36.7563 81.6151 35.4336 83.1084 34.367C84.6018 33.3003 86.2444 32.4043 88.0364 31.679C89.8284 30.911 91.5991 30.2283 93.3484 29.631V25.919C93.3484 25.279 93.2844 24.7243 93.1564 24.255C93.0284 23.743 92.8151 23.359 92.5164 23.103C92.2178 22.8043 91.7698 22.655 91.1724 22.655C90.5751 22.655 90.1058 22.783 89.7644 23.039C89.4658 23.295 89.2524 23.6576 89.1244 24.127C88.9964 24.5536 88.9111 25.0443 88.8684 25.599L88.6124 28.287L78.8844 27.903C79.0978 23.4656 80.2711 20.2016 82.4044 18.111C84.5804 15.9776 87.8231 14.911 92.1324 14.911C95.8871 14.911 98.6818 15.9563 100.516 18.047C102.394 20.095 103.332 22.7616 103.332 26.047V43.327C103.332 44.863 103.354 46.207 103.396 47.359C103.482 48.511 103.567 49.5136 103.652 50.367C103.78 51.2203 103.887 51.9456 103.972 52.543H94.6284C94.5004 51.5616 94.3511 50.495 94.1804 49.343C94.0098 48.191 93.8818 47.5083 93.7964 47.295C93.3698 48.831 92.5591 50.1963 91.3644 51.391C90.2124 52.5856 88.6551 53.183 86.6924 53.183ZM90.4044 46.143C90.8311 46.143 91.2151 46.0576 91.5564 45.887C91.9404 45.7163 92.2818 45.4816 92.5804 45.183C92.8791 44.8843 93.1351 44.5856 93.3484 44.287V34.175C92.4951 34.687 91.7058 35.2203 90.9804 35.775C90.2551 36.287 89.6364 36.863 89.1244 37.503C88.6124 38.143 88.2071 38.847 87.9084 39.615C87.6524 40.3403 87.5244 41.1723 87.5244 42.111C87.5244 43.3483 87.7804 44.3296 88.2924 45.055C88.8044 45.7803 89.5084 46.143 90.4044 46.143ZM108.258 52.543V15.551H116.514V35.327L126.178 15.551H134.306V52.543H125.858V32.959L116.45 52.543H108.258ZM121.378 11.391C118.349 11.391 115.917 10.5376 114.082 8.83097C112.247 7.1243 111.33 4.64963 111.33 1.40697H117.218C117.218 2.98563 117.517 4.15897 118.114 4.92697C118.754 5.69497 119.842 6.07897 121.378 6.07897C122.871 6.07897 123.938 5.69497 124.578 4.92697C125.218 4.1163 125.538 2.94297 125.538 1.40697H131.426C131.426 4.64963 130.509 7.1243 128.674 8.83097C126.839 10.5376 124.407 11.391 121.378 11.391ZM143.958 52.543V22.591H137.238V15.551H161.046V22.591H154.326V52.543H143.958ZM176.231 53.183C173.543 53.183 171.239 52.7136 169.319 51.775C167.399 50.7936 165.927 49.3856 164.903 47.551C163.879 45.6736 163.367 43.4336 163.367 40.831V27.263C163.367 24.6176 163.879 22.3776 164.903 20.543C165.927 18.7083 167.399 17.3216 169.319 16.383C171.282 15.4016 173.586 14.911 176.231 14.911C178.962 14.911 181.223 15.3803 183.015 16.319C184.85 17.2576 186.215 18.6443 187.111 20.479C188.05 22.3136 188.519 24.575 188.519 27.263V34.687H173.671V41.791C173.671 42.7296 173.778 43.4976 173.991 44.095C174.205 44.6923 174.503 45.119 174.887 45.375C175.271 45.631 175.719 45.759 176.231 45.759C176.743 45.759 177.191 45.6523 177.575 45.439C178.002 45.183 178.322 44.799 178.535 44.287C178.791 43.775 178.919 43.071 178.919 42.175V38.271H188.519V41.855C188.519 45.6096 187.431 48.447 185.255 50.367C183.079 52.2443 180.071 53.183 176.231 53.183ZM173.671 29.823H178.919V26.111C178.919 25.1296 178.791 24.3616 178.535 23.807C178.322 23.2523 178.002 22.8683 177.575 22.655C177.191 22.4416 176.722 22.335 176.167 22.335C175.655 22.335 175.207 22.463 174.823 22.719C174.482 22.975 174.205 23.423 173.991 24.063C173.778 24.6603 173.671 25.535 173.671 26.687V29.823Z" fill="#2140F0"/>
</svg>
